# xmcd
#
# Track frame offsets: 
#        150
#        16349
#        36460
#        54887
#        73551
#        91201
#        108847
#        125091
#        143157
#        166108
#        181534
#        201072
#
# Disc length: 2902 seconds
#
# Revision: 1
# Processed by: cddbd v1.5.2PL0 Copyright (c) Steve Scherf et al.
# Submitted via: ExactAudioCopyFreeDBPlugin 1.0
#
DISCID=960b540c
DTITLE=Vdelli - Ain't Bringing Me Down
DYEAR=2009
DGENRE=Blues
TTITLE0=Manhole
TTITLE1=Something New
TTITLE2=Loose Endz
TTITLE3=Boogie Sea
TTITLE4=Going Too Hard (For Too Long)
TTITLE5=Could Be Good
TTITLE6=Boogie A
TTITLE7=Suck It Up
TTITLE8=Condescending Lies
TTITLE9=Boogie Bee
TTITLE10=Childhood Demons
TTITLE11=Ain't Bringing Me Down
EXTD=
EXTT0=
EXTT1=
EXTT2=
EXTT3=
EXTT4=
EXTT5=
EXTT6=
EXTT7=
EXTT8=
EXTT9=
EXTT10=
EXTT11=
PLAYORDER=
